<?xml version="1.0" encoding="UTF-8" standalone="no"?>
<!DOCTYPE svg PUBLIC "-//W3C//DTD SVG 1.1//EN" "http://www.w3.org/Graphics/SVG/1.1/DTD/svg11.dtd">
<svg width="100%" height="100%" viewBox="0 0 664 129" version="1.1" xmlns="http://www.w3.org/2000/svg" xmlns:xlink="http://www.w3.org/1999/xlink" xml:space="preserve" xmlns:serif="http://www.serif.com/" style="fill-rule:evenodd;clip-rule:evenodd;stroke-linejoin:round;stroke-miterlimit:2;">
    <g transform="matrix(1,0,0,1,-101.029,-64.9734)">
        <g>
            <g transform="matrix(96,0,0,96,98.1061,133.127)">
                <path d="M0.07,-0.028C0.07,-0.016 0.083,-0.003 0.095,-0.003L0.558,-0.003C0.572,-0.003 0.584,-0.014 0.584,-0.028L0.584,-0.134C0.584,-0.148 0.572,-0.159 0.558,-0.159L0.289,-0.159C0.28,-0.159 0.272,-0.163 0.267,-0.171C0.262,-0.178 0.259,-0.185 0.259,-0.19L0.259,-0.675C0.259,-0.682 0.257,-0.688 0.252,-0.693C0.248,-0.698 0.242,-0.7 0.234,-0.7L0.157,-0.7C0.146,-0.7 0.136,-0.698 0.125,-0.694C0.093,-0.679 0.07,-0.651 0.07,-0.614L0.07,-0.028Z" style="fill:rgb(250,236,201);fill-rule:nonzero;"/>
            </g>
            <g transform="matrix(96,0,0,96,155.706,133.127)">
                <path d="M0.069,-0.027C0.069,-0.012 0.079,-0.002 0.094,-0.002L0.572,-0.002C0.586,-0.002 0.598,-0.013 0.598,-0.027L0.598,-0.125C0.598,-0.141 0.588,-0.151 0.572,-0.151L0.28,-0.151C0.271,-0.151 0.263,-0.154 0.258,-0.161C0.252,-0.168 0.249,-0.175 0.249,-0.182L0.249,-0.229C0.249,-0.258 0.222,-0.281 0.194,-0.281L0.497,-0.281C0.514,-0.281 0.523,-0.29 0.523,-0.307L0.523,-0.397C0.523,-0.414 0.514,-0.423 0.497,-0.423L0.28,-0.423C0.263,-0.423 0.249,-0.436 0.249,-0.454L0.249,-0.496C0.249,-0.526 0.224,-0.55 0.194,-0.55L0.564,-0.55C0.571,-0.55 0.577,-0.552 0.582,-0.557C0.587,-0.561 0.59,-0.567 0.59,-0.574L0.59,-0.673C0.59,-0.686 0.577,-0.699 0.564,-0.699L0.156,-0.699C0.107,-0.699 0.069,-0.661 0.069,-0.612L0.069,-0.027Z" style="fill:rgb(250,236,201);fill-rule:nonzero;"/>
            </g>
            <g transform="matrix(96,0,0,96,217.338,133.127)">
                <path d="M0.014,-0.006C0.019,-0.002 0.024,-0 0.029,-0L0.158,-0C0.175,-0 0.186,-0.007 0.192,-0.022L0.206,-0.06C0.212,-0.075 0.211,-0.089 0.204,-0.101C0.197,-0.111 0.188,-0.117 0.177,-0.119L0.212,-0.119C0.3,-0.119 0.39,-0.132 0.473,-0.163L0.525,-0.022C0.531,-0.007 0.542,-0 0.559,-0L0.688,-0C0.699,-0 0.709,-0.01 0.709,-0.021C0.709,-0.026 0.709,-0.029 0.708,-0.03L0.476,-0.668C0.469,-0.687 0.455,-0.697 0.436,-0.697L0.281,-0.697C0.262,-0.697 0.248,-0.687 0.241,-0.668L0.009,-0.03C0.008,-0.029 0.008,-0.026 0.008,-0.021C0.008,-0.016 0.01,-0.011 0.014,-0.006ZM0.435,-0.302C0.389,-0.277 0.319,-0.265 0.268,-0.262L0.358,-0.522L0.435,-0.302Z" style="fill:rgb(250,236,201);fill-rule:nonzero;"/>
            </g>
            <g transform="matrix(96,0,0,96,286.458,133.127)">
                <path d="M0.07,-0.028C0.07,-0.013 0.08,-0.003 0.095,-0.003L0.228,-0.003C0.236,-0.003 0.242,-0.005 0.246,-0.01C0.251,-0.015 0.253,-0.021 0.253,-0.028L0.253,-0.196C0.253,-0.225 0.227,-0.249 0.198,-0.249L0.493,-0.249C0.501,-0.249 0.507,-0.251 0.512,-0.256C0.517,-0.26 0.519,-0.266 0.519,-0.274L0.519,-0.379C0.519,-0.396 0.51,-0.405 0.493,-0.405L0.253,-0.405L0.253,-0.49C0.253,-0.52 0.228,-0.544 0.198,-0.544L0.558,-0.544C0.565,-0.544 0.571,-0.546 0.576,-0.551C0.581,-0.555 0.584,-0.561 0.584,-0.568L0.584,-0.674C0.584,-0.687 0.571,-0.7 0.558,-0.7L0.157,-0.7C0.146,-0.7 0.136,-0.698 0.125,-0.694C0.114,-0.689 0.105,-0.683 0.097,-0.676C0.081,-0.66 0.07,-0.636 0.07,-0.613L0.07,-0.028Z" style="fill:rgb(250,236,201);fill-rule:nonzero;"/>
            </g>
            <g transform="matrix(96,0,0,96,364.314,133.127)">
                <path d="M0.068,-0.025C0.068,-0.01 0.078,-0 0.093,-0L0.235,-0C0.243,-0 0.249,-0.002 0.253,-0.007C0.258,-0.012 0.26,-0.018 0.26,-0.025L0.26,-0.672C0.26,-0.679 0.258,-0.685 0.253,-0.69C0.249,-0.695 0.243,-0.697 0.235,-0.697L0.155,-0.697C0.106,-0.697 0.068,-0.659 0.068,-0.61L0.068,-0.025Z" style="fill:rgb(250,236,201);fill-rule:nonzero;"/>
            </g>
            <g transform="matrix(96,0,0,96,395.898,133.127)">
                <path d="M0.11,-0.7C0.061,-0.7 0.023,-0.663 0.023,-0.614L0.023,-0.563C0.023,-0.555 0.025,-0.549 0.03,-0.545C0.035,-0.54 0.041,-0.538 0.049,-0.538L0.194,-0.538C0.201,-0.538 0.208,-0.535 0.215,-0.53C0.221,-0.524 0.224,-0.516 0.224,-0.507L0.224,-0.028C0.224,-0.014 0.236,-0.003 0.25,-0.003L0.388,-0.003C0.396,-0.003 0.402,-0.005 0.407,-0.01C0.412,-0.014 0.414,-0.02 0.414,-0.028L0.414,-0.486C0.414,-0.515 0.386,-0.538 0.358,-0.538L0.589,-0.538C0.597,-0.538 0.603,-0.54 0.608,-0.545C0.613,-0.549 0.615,-0.555 0.615,-0.563L0.615,-0.674C0.615,-0.691 0.606,-0.7 0.589,-0.7L0.11,-0.7Z" style="fill:rgb(250,236,201);fill-rule:nonzero;"/>
            </g>
            <g transform="matrix(96,0,0,96,477.018,133.127)">
                <path d="M0.11,-0.7C0.061,-0.7 0.023,-0.663 0.023,-0.614L0.023,-0.563C0.023,-0.555 0.025,-0.549 0.03,-0.545C0.035,-0.54 0.041,-0.538 0.049,-0.538L0.194,-0.538C0.201,-0.538 0.208,-0.535 0.215,-0.53C0.221,-0.524 0.224,-0.516 0.224,-0.507L0.224,-0.028C0.224,-0.014 0.236,-0.003 0.25,-0.003L0.388,-0.003C0.396,-0.003 0.402,-0.005 0.407,-0.01C0.412,-0.014 0.414,-0.02 0.414,-0.028L0.414,-0.486C0.414,-0.515 0.386,-0.538 0.358,-0.538L0.589,-0.538C0.597,-0.538 0.603,-0.54 0.608,-0.545C0.613,-0.549 0.615,-0.555 0.615,-0.563L0.615,-0.674C0.615,-0.691 0.606,-0.7 0.589,-0.7L0.11,-0.7Z" style="fill:rgb(250,236,201);fill-rule:nonzero;"/>
            </g>
            <g transform="matrix(96,0,0,96,537.978,133.127)">
                <path d="M0.358,0.01C0.453,0.01 0.527,-0.013 0.582,-0.059C0.67,-0.134 0.67,-0.243 0.67,-0.348C0.67,-0.367 0.669,-0.396 0.668,-0.435C0.662,-0.621 0.535,-0.71 0.358,-0.71C0.181,-0.71 0.053,-0.621 0.047,-0.435C0.046,-0.416 0.046,-0.387 0.046,-0.348C0.046,-0.309 0.046,-0.281 0.047,-0.262C0.053,-0.074 0.18,0.01 0.358,0.01ZM0.358,-0.14C0.279,-0.14 0.243,-0.193 0.241,-0.268C0.24,-0.287 0.24,-0.315 0.24,-0.351C0.24,-0.386 0.24,-0.413 0.241,-0.432C0.243,-0.508 0.277,-0.56 0.358,-0.56C0.438,-0.56 0.472,-0.507 0.474,-0.432C0.475,-0.395 0.476,-0.368 0.476,-0.351C0.476,-0.334 0.475,-0.307 0.474,-0.268C0.472,-0.194 0.437,-0.14 0.358,-0.14Z" style="fill:rgb(250,236,201);fill-rule:nonzero;"/>
            </g>
            <g transform="matrix(96,0,0,96,626.874,133.127)">
                <path d="M0.625,-0.697C0.608,-0.697 0.596,-0.69 0.589,-0.675L0.412,-0.376L0.245,-0.675C0.238,-0.69 0.226,-0.697 0.209,-0.697L0.153,-0.697C0.111,-0.697 0.071,-0.655 0.071,-0.614L0.071,-0.025C0.071,-0.017 0.074,-0.011 0.079,-0.007C0.084,-0.002 0.09,-0 0.097,-0L0.222,-0C0.23,-0 0.236,-0.002 0.241,-0.007C0.246,-0.011 0.248,-0.017 0.248,-0.025L0.258,-0.369L0.355,-0.19C0.365,-0.175 0.377,-0.167 0.39,-0.167L0.443,-0.167C0.458,-0.167 0.47,-0.175 0.478,-0.19L0.58,-0.372C0.584,-0.372 0.586,-0.37 0.586,-0.366L0.586,-0.025C0.586,-0.01 0.596,-0 0.611,-0L0.737,-0C0.751,-0 0.763,-0.011 0.763,-0.025L0.763,-0.671C0.763,-0.684 0.75,-0.697 0.737,-0.697L0.625,-0.697Z" style="fill:rgb(250,236,201);fill-rule:nonzero;"/>
            </g>
            <g transform="matrix(96,0,0,96,706.65,133.127)">
                <path d="M0.069,-0.027C0.069,-0.012 0.079,-0.002 0.094,-0.002L0.572,-0.002C0.586,-0.002 0.598,-0.013 0.598,-0.027L0.598,-0.125C0.598,-0.141 0.588,-0.151 0.572,-0.151L0.28,-0.151C0.271,-0.151 0.263,-0.154 0.258,-0.161C0.252,-0.168 0.249,-0.175 0.249,-0.182L0.249,-0.229C0.249,-0.258 0.222,-0.281 0.194,-0.281L0.497,-0.281C0.514,-0.281 0.523,-0.29 0.523,-0.307L0.523,-0.397C0.523,-0.414 0.514,-0.423 0.497,-0.423L0.28,-0.423C0.263,-0.423 0.249,-0.436 0.249,-0.454L0.249,-0.496C0.249,-0.526 0.224,-0.55 0.194,-0.55L0.564,-0.55C0.571,-0.55 0.577,-0.552 0.582,-0.557C0.587,-0.561 0.59,-0.567 0.59,-0.574L0.59,-0.673C0.59,-0.686 0.577,-0.699 0.564,-0.699L0.156,-0.699C0.107,-0.699 0.069,-0.661 0.069,-0.612L0.069,-0.027Z" style="fill:rgb(250,236,201);fill-rule:nonzero;"/>
            </g>
        </g>
        <g transform="matrix(2.24108,0,0,0.242166,-1312.68,34.086)">
            <g transform="matrix(17.8485,0,0,165.176,629.512,655.623)">
                <path d="M0.656,-0.469C0.656,-0.635 0.537,-0.7 0.38,-0.7L0.16,-0.7C0.15,-0.7 0.14,-0.698 0.13,-0.695C0.095,-0.681 0.073,-0.652 0.073,-0.613L0.073,-0.028C0.073,-0.016 0.086,-0.003 0.098,-0.003L0.241,-0.003C0.249,-0.003 0.255,-0.006 0.259,-0.011C0.264,-0.016 0.266,-0.021 0.266,-0.028L0.266,-0.213C0.266,-0.23 0.279,-0.243 0.296,-0.243L0.38,-0.243C0.527,-0.243 0.656,-0.298 0.656,-0.469ZM0.462,-0.47C0.462,-0.415 0.429,-0.385 0.375,-0.385L0.294,-0.385C0.286,-0.385 0.279,-0.388 0.273,-0.394C0.266,-0.399 0.263,-0.407 0.263,-0.416L0.263,-0.502C0.263,-0.52 0.255,-0.531 0.243,-0.543C0.237,-0.548 0.231,-0.551 0.224,-0.554C0.217,-0.556 0.211,-0.557 0.206,-0.557L0.375,-0.557C0.433,-0.557 0.462,-0.528 0.462,-0.47Z" style="fill:rgb(250,236,201);fill-rule:nonzero;"/>
            </g>
            <g transform="matrix(17.8485,0,0,165.176,641.631,655.623)">
                <path d="M0.07,-0.028C0.07,-0.016 0.083,-0.003 0.095,-0.003L0.558,-0.003C0.572,-0.003 0.584,-0.014 0.584,-0.028L0.584,-0.134C0.584,-0.148 0.572,-0.159 0.558,-0.159L0.289,-0.159C0.28,-0.159 0.272,-0.163 0.267,-0.171C0.262,-0.178 0.259,-0.185 0.259,-0.19L0.259,-0.675C0.259,-0.682 0.257,-0.688 0.252,-0.693C0.248,-0.698 0.242,-0.7 0.234,-0.7L0.157,-0.7C0.146,-0.7 0.136,-0.698 0.125,-0.694C0.093,-0.679 0.07,-0.651 0.07,-0.614L0.07,-0.028Z" style="fill:rgb(250,236,201);fill-rule:nonzero;"/>
            </g>
            <g transform="matrix(17.8485,0,0,165.176,652.34,655.623)">
                <path d="M0.014,-0.006C0.019,-0.002 0.024,-0 0.029,-0L0.158,-0C0.175,-0 0.186,-0.007 0.192,-0.022L0.206,-0.06C0.212,-0.075 0.211,-0.089 0.204,-0.101C0.197,-0.111 0.188,-0.117 0.177,-0.119L0.212,-0.119C0.3,-0.119 0.39,-0.132 0.473,-0.163L0.525,-0.022C0.531,-0.007 0.542,-0 0.559,-0L0.688,-0C0.699,-0 0.709,-0.01 0.709,-0.021C0.709,-0.026 0.709,-0.029 0.708,-0.03L0.476,-0.668C0.469,-0.687 0.455,-0.697 0.436,-0.697L0.281,-0.697C0.262,-0.697 0.248,-0.687 0.241,-0.668L0.009,-0.03C0.008,-0.029 0.008,-0.026 0.008,-0.021C0.008,-0.016 0.01,-0.011 0.014,-0.006ZM0.435,-0.302C0.389,-0.277 0.319,-0.265 0.268,-0.262L0.358,-0.522L0.435,-0.302Z" style="fill:rgb(250,236,201);fill-rule:nonzero;"/>
            </g>
            <g transform="matrix(17.8485,0,0,165.176,665.191,655.623)">
                <path d="M0.069,-0.028C0.069,-0.016 0.082,-0.003 0.094,-0.003L0.22,-0.003C0.228,-0.003 0.234,-0.005 0.239,-0.01C0.244,-0.014 0.246,-0.02 0.246,-0.028L0.25,-0.364C0.252,-0.364 0.254,-0.364 0.257,-0.363C0.258,-0.361 0.262,-0.355 0.269,-0.345C0.276,-0.334 0.284,-0.322 0.294,-0.307C0.318,-0.266 0.345,-0.226 0.372,-0.187C0.404,-0.138 0.44,-0.083 0.48,-0.022C0.487,-0.009 0.498,-0.003 0.514,-0.003L0.627,-0.003C0.634,-0.003 0.64,-0.006 0.644,-0.011C0.649,-0.016 0.651,-0.022 0.651,-0.029L0.651,-0.674C0.651,-0.682 0.649,-0.688 0.644,-0.693C0.64,-0.698 0.634,-0.7 0.627,-0.7L0.562,-0.7C0.551,-0.7 0.541,-0.698 0.53,-0.694C0.497,-0.679 0.475,-0.651 0.475,-0.613L0.475,-0.328C0.475,-0.326 0.474,-0.325 0.469,-0.325L0.465,-0.325C0.464,-0.327 0.46,-0.333 0.453,-0.344C0.434,-0.373 0.416,-0.403 0.398,-0.432C0.387,-0.449 0.371,-0.473 0.352,-0.503C0.321,-0.552 0.285,-0.608 0.246,-0.669C0.229,-0.692 0.216,-0.7 0.188,-0.7L0.156,-0.7C0.108,-0.7 0.069,-0.661 0.069,-0.613L0.069,-0.028Z" style="fill:rgb(250,236,201);fill-rule:nonzero;"/>
            </g>
            <g transform="matrix(17.8485,0,0,165.176,677.953,655.623)">
                <path d="M0.11,-0.7C0.061,-0.7 0.023,-0.663 0.023,-0.614L0.023,-0.563C0.023,-0.555 0.025,-0.549 0.03,-0.545C0.035,-0.54 0.041,-0.538 0.049,-0.538L0.194,-0.538C0.201,-0.538 0.208,-0.535 0.215,-0.53C0.221,-0.524 0.224,-0.516 0.224,-0.507L0.224,-0.028C0.224,-0.014 0.236,-0.003 0.25,-0.003L0.388,-0.003C0.396,-0.003 0.402,-0.005 0.407,-0.01C0.412,-0.014 0.414,-0.02 0.414,-0.028L0.414,-0.486C0.414,-0.515 0.386,-0.538 0.358,-0.538L0.589,-0.538C0.597,-0.538 0.603,-0.54 0.608,-0.545C0.613,-0.549 0.615,-0.555 0.615,-0.563L0.615,-0.674C0.615,-0.691 0.606,-0.7 0.589,-0.7L0.11,-0.7Z" style="fill:rgb(250,236,201);fill-rule:nonzero;"/>
            </g>
            <g transform="matrix(17.8485,0,0,165.176,696.783,655.623)">
                <path d="M0.047,-0.26C0.051,-0.077 0.178,0.01 0.357,0.01C0.506,0.01 0.665,-0.06 0.669,-0.232C0.669,-0.238 0.667,-0.243 0.663,-0.247C0.658,-0.251 0.653,-0.253 0.647,-0.253L0.506,-0.253C0.487,-0.253 0.479,-0.245 0.474,-0.227C0.465,-0.196 0.451,-0.173 0.432,-0.159C0.411,-0.146 0.386,-0.139 0.357,-0.139C0.282,-0.139 0.243,-0.181 0.24,-0.265C0.239,-0.274 0.239,-0.286 0.239,-0.3L0.239,-0.398C0.239,-0.411 0.239,-0.423 0.24,-0.432C0.243,-0.515 0.282,-0.557 0.357,-0.557C0.423,-0.557 0.456,-0.533 0.474,-0.47C0.477,-0.461 0.48,-0.454 0.485,-0.45C0.489,-0.446 0.496,-0.444 0.506,-0.444L0.647,-0.444C0.653,-0.444 0.658,-0.446 0.663,-0.45C0.667,-0.454 0.669,-0.459 0.669,-0.465C0.665,-0.634 0.511,-0.707 0.357,-0.707C0.189,-0.707 0.051,-0.624 0.047,-0.437C0.046,-0.428 0.046,-0.416 0.046,-0.401L0.046,-0.296C0.046,-0.281 0.046,-0.269 0.047,-0.26Z" style="fill:rgb(250,236,201);fill-rule:nonzero;"/>
            </g>
            <g transform="matrix(17.8485,0,0,165.176,709.331,655.623)">
                <path d="M0.014,-0.006C0.019,-0.002 0.024,-0 0.029,-0L0.158,-0C0.175,-0 0.186,-0.007 0.192,-0.022L0.206,-0.06C0.212,-0.075 0.211,-0.089 0.204,-0.101C0.197,-0.111 0.188,-0.117 0.177,-0.119L0.212,-0.119C0.3,-0.119 0.39,-0.132 0.473,-0.163L0.525,-0.022C0.531,-0.007 0.542,-0 0.559,-0L0.688,-0C0.699,-0 0.709,-0.01 0.709,-0.021C0.709,-0.026 0.709,-0.029 0.708,-0.03L0.476,-0.668C0.469,-0.687 0.455,-0.697 0.436,-0.697L0.281,-0.697C0.262,-0.697 0.248,-0.687 0.241,-0.668L0.009,-0.03C0.008,-0.029 0.008,-0.026 0.008,-0.021C0.008,-0.016 0.01,-0.011 0.014,-0.006ZM0.435,-0.302C0.389,-0.277 0.319,-0.265 0.268,-0.262L0.358,-0.522L0.435,-0.302Z" style="fill:rgb(250,236,201);fill-rule:nonzero;"/>
            </g>
            <g transform="matrix(17.8485,0,0,165.176,722.182,655.623)">
                <path d="M0.657,-0.008C0.661,-0.013 0.663,-0.018 0.663,-0.023C0.663,-0.026 0.662,-0.03 0.66,-0.034L0.535,-0.261C0.534,-0.264 0.533,-0.267 0.533,-0.272C0.533,-0.277 0.536,-0.281 0.541,-0.285C0.615,-0.325 0.647,-0.388 0.647,-0.471C0.647,-0.634 0.52,-0.699 0.368,-0.699L0.156,-0.699C0.108,-0.699 0.069,-0.66 0.069,-0.612L0.069,-0.027C0.069,-0.012 0.079,-0.002 0.094,-0.002L0.23,-0.002C0.238,-0.002 0.244,-0.004 0.249,-0.009C0.254,-0.013 0.256,-0.019 0.256,-0.027L0.256,-0.192C0.256,-0.222 0.23,-0.245 0.201,-0.245L0.333,-0.245C0.345,-0.245 0.354,-0.24 0.36,-0.229L0.461,-0.029C0.469,-0.011 0.483,-0.002 0.502,-0.002L0.642,-0.002C0.648,-0.002 0.653,-0.004 0.657,-0.008ZM0.454,-0.472C0.454,-0.417 0.42,-0.391 0.367,-0.391L0.28,-0.391C0.263,-0.391 0.249,-0.405 0.249,-0.422L0.249,-0.502C0.249,-0.531 0.224,-0.556 0.195,-0.556L0.367,-0.556C0.394,-0.556 0.415,-0.549 0.431,-0.535C0.446,-0.52 0.454,-0.499 0.454,-0.472Z" style="fill:rgb(250,236,201);fill-rule:nonzero;"/>
            </g>
            <g transform="matrix(17.8485,0,0,165.176,734.515,655.623)">
                <path d="M0.069,-0.027C0.069,-0.012 0.079,-0.002 0.094,-0.002L0.572,-0.002C0.586,-0.002 0.598,-0.013 0.598,-0.027L0.598,-0.125C0.598,-0.141 0.588,-0.151 0.572,-0.151L0.28,-0.151C0.271,-0.151 0.263,-0.154 0.258,-0.161C0.252,-0.168 0.249,-0.175 0.249,-0.182L0.249,-0.229C0.249,-0.258 0.222,-0.281 0.194,-0.281L0.497,-0.281C0.514,-0.281 0.523,-0.29 0.523,-0.307L0.523,-0.397C0.523,-0.414 0.514,-0.423 0.497,-0.423L0.28,-0.423C0.263,-0.423 0.249,-0.436 0.249,-0.454L0.249,-0.496C0.249,-0.526 0.224,-0.55 0.194,-0.55L0.564,-0.55C0.571,-0.55 0.577,-0.552 0.582,-0.557C0.587,-0.561 0.59,-0.567 0.59,-0.574L0.59,-0.673C0.59,-0.686 0.577,-0.699 0.564,-0.699L0.156,-0.699C0.107,-0.699 0.069,-0.661 0.069,-0.612L0.069,-0.027Z" style="fill:rgb(250,236,201);fill-rule:nonzero;"/>
            </g>
            <g transform="matrix(17.8485,0,0,165.176,753.47,655.623)">
                <path d="M0.625,-0.697C0.608,-0.697 0.596,-0.69 0.589,-0.675L0.412,-0.376L0.245,-0.675C0.238,-0.69 0.226,-0.697 0.209,-0.697L0.153,-0.697C0.111,-0.697 0.071,-0.655 0.071,-0.614L0.071,-0.025C0.071,-0.017 0.074,-0.011 0.079,-0.007C0.084,-0.002 0.09,-0 0.097,-0L0.222,-0C0.23,-0 0.236,-0.002 0.241,-0.007C0.246,-0.011 0.248,-0.017 0.248,-0.025L0.258,-0.369L0.355,-0.19C0.365,-0.175 0.377,-0.167 0.39,-0.167L0.443,-0.167C0.458,-0.167 0.47,-0.175 0.478,-0.19L0.58,-0.372C0.584,-0.372 0.586,-0.37 0.586,-0.366L0.586,-0.025C0.586,-0.01 0.596,-0 0.611,-0L0.737,-0C0.751,-0 0.763,-0.011 0.763,-0.025L0.763,-0.671C0.763,-0.684 0.75,-0.697 0.737,-0.697L0.625,-0.697Z" style="fill:rgb(250,236,201);fill-rule:nonzero;"/>
            </g>
            <g transform="matrix(17.8485,0,0,165.176,768.302,655.623)">
                <path d="M0.014,-0.006C0.019,-0.002 0.024,-0 0.029,-0L0.158,-0C0.175,-0 0.186,-0.007 0.192,-0.022L0.206,-0.06C0.212,-0.075 0.211,-0.089 0.204,-0.101C0.197,-0.111 0.188,-0.117 0.177,-0.119L0.212,-0.119C0.3,-0.119 0.39,-0.132 0.473,-0.163L0.525,-0.022C0.531,-0.007 0.542,-0 0.559,-0L0.688,-0C0.699,-0 0.709,-0.01 0.709,-0.021C0.709,-0.026 0.709,-0.029 0.708,-0.03L0.476,-0.668C0.469,-0.687 0.455,-0.697 0.436,-0.697L0.281,-0.697C0.262,-0.697 0.248,-0.687 0.241,-0.668L0.009,-0.03C0.008,-0.029 0.008,-0.026 0.008,-0.021C0.008,-0.016 0.01,-0.011 0.014,-0.006ZM0.435,-0.302C0.389,-0.277 0.319,-0.265 0.268,-0.262L0.358,-0.522L0.435,-0.302Z" style="fill:rgb(250,236,201);fill-rule:nonzero;"/>
            </g>
            <g transform="matrix(17.8485,0,0,165.176,781.153,655.623)">
                <path d="M0.068,-0.025C0.068,-0.01 0.078,-0 0.093,-0L0.36,-0C0.56,-0 0.663,-0.091 0.669,-0.273C0.67,-0.282 0.67,-0.293 0.67,-0.306L0.67,-0.392C0.67,-0.405 0.67,-0.416 0.669,-0.425C0.665,-0.612 0.538,-0.697 0.355,-0.697L0.155,-0.697C0.107,-0.697 0.068,-0.658 0.068,-0.61L0.068,-0.025ZM0.286,-0.149C0.277,-0.149 0.269,-0.152 0.264,-0.158C0.258,-0.164 0.255,-0.171 0.255,-0.18L0.255,-0.496C0.255,-0.525 0.228,-0.548 0.2,-0.548L0.35,-0.548C0.434,-0.548 0.477,-0.506 0.479,-0.423C0.48,-0.414 0.48,-0.403 0.481,-0.391L0.481,-0.308C0.48,-0.295 0.48,-0.284 0.479,-0.275C0.477,-0.191 0.441,-0.149 0.355,-0.149L0.286,-0.149Z" style="fill:rgb(250,236,201);fill-rule:nonzero;"/>
            </g>
            <g transform="matrix(17.8485,0,0,165.176,793.986,655.623)">
                <path d="M0.069,-0.027C0.069,-0.012 0.079,-0.002 0.094,-0.002L0.572,-0.002C0.586,-0.002 0.598,-0.013 0.598,-0.027L0.598,-0.125C0.598,-0.141 0.588,-0.151 0.572,-0.151L0.28,-0.151C0.271,-0.151 0.263,-0.154 0.258,-0.161C0.252,-0.168 0.249,-0.175 0.249,-0.182L0.249,-0.229C0.249,-0.258 0.222,-0.281 0.194,-0.281L0.497,-0.281C0.514,-0.281 0.523,-0.29 0.523,-0.307L0.523,-0.397C0.523,-0.414 0.514,-0.423 0.497,-0.423L0.28,-0.423C0.263,-0.423 0.249,-0.436 0.249,-0.454L0.249,-0.496C0.249,-0.526 0.224,-0.55 0.194,-0.55L0.564,-0.55C0.571,-0.55 0.577,-0.552 0.582,-0.557C0.587,-0.561 0.59,-0.567 0.59,-0.574L0.59,-0.673C0.59,-0.686 0.577,-0.699 0.564,-0.699L0.156,-0.699C0.107,-0.699 0.069,-0.661 0.069,-0.612L0.069,-0.027Z" style="fill:rgb(250,236,201);fill-rule:nonzero;"/>
            </g>
            <g transform="matrix(17.8485,0,0,165.176,812.941,655.623)">
                <path d="M0.069,-0.027C0.069,-0.012 0.079,-0.002 0.094,-0.002L0.572,-0.002C0.586,-0.002 0.598,-0.013 0.598,-0.027L0.598,-0.125C0.598,-0.141 0.588,-0.151 0.572,-0.151L0.28,-0.151C0.271,-0.151 0.263,-0.154 0.258,-0.161C0.252,-0.168 0.249,-0.175 0.249,-0.182L0.249,-0.229C0.249,-0.258 0.222,-0.281 0.194,-0.281L0.497,-0.281C0.514,-0.281 0.523,-0.29 0.523,-0.307L0.523,-0.397C0.523,-0.414 0.514,-0.423 0.497,-0.423L0.28,-0.423C0.263,-0.423 0.249,-0.436 0.249,-0.454L0.249,-0.496C0.249,-0.526 0.224,-0.55 0.194,-0.55L0.564,-0.55C0.571,-0.55 0.577,-0.552 0.582,-0.557C0.587,-0.561 0.59,-0.567 0.59,-0.574L0.59,-0.673C0.59,-0.686 0.577,-0.699 0.564,-0.699L0.156,-0.699C0.107,-0.699 0.069,-0.661 0.069,-0.612L0.069,-0.027Z" style="fill:rgb(250,236,201);fill-rule:nonzero;"/>
            </g>
            <g transform="matrix(17.8485,0,0,165.176,824.4,655.623)">
                <path d="M0.014,-0.006C0.019,-0.002 0.024,-0 0.029,-0L0.158,-0C0.175,-0 0.186,-0.007 0.192,-0.022L0.206,-0.06C0.212,-0.075 0.211,-0.089 0.204,-0.101C0.197,-0.111 0.188,-0.117 0.177,-0.119L0.212,-0.119C0.3,-0.119 0.39,-0.132 0.473,-0.163L0.525,-0.022C0.531,-0.007 0.542,-0 0.559,-0L0.688,-0C0.699,-0 0.709,-0.01 0.709,-0.021C0.709,-0.026 0.709,-0.029 0.708,-0.03L0.476,-0.668C0.469,-0.687 0.455,-0.697 0.436,-0.697L0.281,-0.697C0.262,-0.697 0.248,-0.687 0.241,-0.668L0.009,-0.03C0.008,-0.029 0.008,-0.026 0.008,-0.021C0.008,-0.016 0.01,-0.011 0.014,-0.006ZM0.435,-0.302C0.389,-0.277 0.319,-0.265 0.268,-0.262L0.358,-0.522L0.435,-0.302Z" style="fill:rgb(250,236,201);fill-rule:nonzero;"/>
            </g>
            <g transform="matrix(17.8485,0,0,165.176,837.251,655.623)">
                <path d="M0.635,-0.212C0.635,-0.361 0.506,-0.402 0.378,-0.422C0.324,-0.433 0.287,-0.444 0.267,-0.455C0.247,-0.466 0.237,-0.482 0.237,-0.501C0.237,-0.549 0.285,-0.559 0.325,-0.559C0.334,-0.559 0.343,-0.558 0.352,-0.557C0.361,-0.555 0.371,-0.552 0.38,-0.549C0.389,-0.545 0.396,-0.54 0.403,-0.534C0.41,-0.527 0.414,-0.519 0.417,-0.51C0.425,-0.498 0.436,-0.492 0.451,-0.492L0.59,-0.492C0.596,-0.492 0.601,-0.494 0.605,-0.498C0.609,-0.503 0.611,-0.509 0.611,-0.514C0.61,-0.543 0.598,-0.573 0.575,-0.603C0.516,-0.678 0.418,-0.709 0.325,-0.709C0.195,-0.709 0.046,-0.65 0.046,-0.497C0.046,-0.355 0.163,-0.309 0.286,-0.285C0.318,-0.277 0.349,-0.27 0.38,-0.261C0.394,-0.256 0.408,-0.25 0.422,-0.242C0.436,-0.233 0.443,-0.22 0.443,-0.203C0.443,-0.177 0.425,-0.161 0.402,-0.153C0.391,-0.148 0.379,-0.145 0.366,-0.144C0.353,-0.142 0.342,-0.141 0.332,-0.141C0.309,-0.141 0.287,-0.145 0.267,-0.153C0.246,-0.16 0.23,-0.175 0.218,-0.196C0.208,-0.21 0.199,-0.214 0.182,-0.214L0.05,-0.214C0.045,-0.214 0.039,-0.212 0.034,-0.208C0.03,-0.204 0.028,-0.199 0.028,-0.193C0.029,-0.158 0.041,-0.125 0.065,-0.094C0.125,-0.014 0.239,0.008 0.332,0.008C0.469,0.008 0.635,-0.049 0.635,-0.212Z" style="fill:rgb(250,236,201);fill-rule:nonzero;"/>
            </g>
            <g transform="matrix(17.8485,0,0,165.176,848.746,655.623)">
                <path d="M0.248,-0.025C0.248,-0.01 0.258,-0 0.273,-0L0.409,-0C0.417,-0 0.423,-0.002 0.428,-0.007C0.433,-0.011 0.435,-0.017 0.435,-0.025L0.435,-0.206C0.435,-0.215 0.436,-0.225 0.439,-0.236C0.441,-0.246 0.444,-0.255 0.449,-0.264C0.45,-0.266 0.454,-0.273 0.461,-0.286C0.468,-0.298 0.476,-0.313 0.485,-0.331C0.51,-0.378 0.535,-0.425 0.56,-0.471C0.591,-0.528 0.626,-0.593 0.665,-0.665C0.667,-0.668 0.668,-0.672 0.668,-0.676C0.668,-0.681 0.666,-0.686 0.662,-0.691C0.657,-0.695 0.652,-0.697 0.647,-0.697L0.516,-0.697C0.501,-0.697 0.489,-0.69 0.48,-0.675C0.456,-0.632 0.434,-0.593 0.415,-0.558L0.391,-0.514C0.383,-0.499 0.376,-0.486 0.37,-0.475C0.363,-0.464 0.358,-0.454 0.354,-0.447C0.349,-0.439 0.347,-0.434 0.337,-0.433C0.336,-0.434 0.334,-0.439 0.33,-0.446C0.325,-0.453 0.32,-0.462 0.315,-0.473C0.309,-0.484 0.303,-0.495 0.296,-0.508C0.289,-0.52 0.279,-0.537 0.268,-0.558C0.249,-0.593 0.227,-0.632 0.203,-0.675C0.2,-0.682 0.196,-0.688 0.189,-0.692C0.182,-0.695 0.174,-0.697 0.167,-0.697L0.036,-0.697C0.025,-0.697 0.015,-0.687 0.015,-0.676C0.015,-0.672 0.016,-0.668 0.018,-0.665L0.234,-0.263C0.244,-0.246 0.248,-0.222 0.248,-0.203L0.248,-0.025Z" style="fill:rgb(250,236,201);fill-rule:nonzero;"/>
            </g>
        </g>
    </g>
</svg>
