<?xml version="1.0" encoding="UTF-8" standalone="no"?>
<!DOCTYPE svg PUBLIC "-//W3C//DTD SVG 1.1//EN" "http://www.w3.org/Graphics/SVG/1.1/DTD/svg11.dtd">
<svg width="100%" height="100%" viewBox="0 0 50 67" version="1.1" xmlns="http://www.w3.org/2000/svg" xmlns:xlink="http://www.w3.org/1999/xlink" xml:space="preserve" xmlns:serif="http://www.serif.com/" style="fill-rule:evenodd;clip-rule:evenodd;stroke-linejoin:round;stroke-miterlimit:2;">
    <g transform="matrix(1,0,0,1,-104.832,-65.9334)">
        <g transform="matrix(96,0,0,96,98.1061,133.127)">
            <path d="M0.07,-0.028C0.07,-0.016 0.083,-0.003 0.095,-0.003L0.558,-0.003C0.572,-0.003 0.584,-0.014 0.584,-0.028L0.584,-0.134C0.584,-0.148 0.572,-0.159 0.558,-0.159L0.289,-0.159C0.28,-0.159 0.272,-0.163 0.267,-0.171C0.262,-0.178 0.259,-0.185 0.259,-0.19L0.259,-0.675C0.259,-0.682 0.257,-0.688 0.252,-0.693C0.248,-0.698 0.242,-0.7 0.234,-0.7L0.157,-0.7C0.146,-0.7 0.136,-0.698 0.125,-0.694C0.093,-0.679 0.07,-0.651 0.07,-0.614L0.07,-0.028Z" style="fill:rgb(8,105,114);fill-rule:nonzero;"/>
        </g>
    </g>
</svg>
