<svg height="512" viewBox="0 0 60 60" width="512" xmlns="http://www.w3.org/2000/svg"><g id="Page-1" fill="none" fill-rule="evenodd"><g id="001---Plant" fill="rgb(0,0,0)" fill-rule="nonzero" transform="translate(0 -1)"><path id="Shape" d="m54 43c-.8989976-.0022822-1.7863813.2030515-2.593.6-.9162178-2.5369487-2.8184408-4.596184-5.2749166-5.7103161s-5.2588582-1.1886658-7.7710834-.2066839c-1.0852685-2.7356721-3.4451928-4.7636444-6.313-5.425.5419273-2.968739 1.5393636-5.8359047 2.957-8.5.3014719.1030263.6174304.1573739.936.161.1 0 .193 0 .291-.013 3.335-.312 9.574-1.479 13.884-5.789s5.477-10.55 5.789-13.885c.094647-.87908741-.2138432-1.75375471-.8390442-2.37895577-.6252011-.62520106-1.4998684-.93369126-2.3789558-.83904423-3.336.312-9.576 1.48-13.887 5.786s-5.477 10.548-5.789 13.884c-.0611414.6353257.0829005 1.273526.411 1.821-1.6326207 2.9600186-2.7693378 6.1674863-3.365 9.495-.02 0-.038 0-.057 0-.157 0-.307.027-.463.035-.9498455-2.453558-2.2838383-4.740451-3.952-6.775.2753755-.5525407.3728419-1.1768143.279-1.787-.51-3.312-2.046-9.472-6.6-13.517s-10.858-4.84-14.206-4.956c-.88252802-.04237837-1.7368126.31698227-2.32367526.97746987-.58686265.66048759-.8432297 1.55111555-.69732474 2.42253013.509 3.312 2.046 9.471 6.6 13.517s10.856 4.84 14.2 4.954h.107c.4056296-.0002529.807015-.0825709 1.18-.242 1.4032981 1.7319713 2.54356 3.661386 3.384 5.726-2.6791475.7654948-4.8502065 2.7329362-5.875 5.324-2.5120299-.9798778-5.3133142-.9037925-7.7684511.2109978s-4.35604447 3.173803-5.2715489 5.7100022c-.80661874-.3969485-1.69400238-.6022822-2.593-.6-3.3137085 0-6 2.6862915-6 6s2.6862915 6 6 6c.81145753.0009008 1.61419468-.1673436 2.357-.494.95138848 3.2948719 3.6948502 5.7611802 7.0720648 6.3576217s6.7995025-.780949 8.8219352-3.5506217c1.4238523 1.7035307 3.529781 2.6880104 5.75 2.6880104s4.3261477-.9844797 5.75-2.6880104c2.0224327 2.7696727 5.4447206 4.1470632 8.8219352 3.5506217s6.1206763-3.0627498 7.0720648-6.3576217c.7421886.3263845 1.5442162.494623 2.355.494 3.3137085 0 6-2.6862915 6-6s-2.6862915-6-6-6zm-13.783-34.783c3.865-3.865 9.589-4.925 12.657-5.212.2849541-.02870462.5684587.06676865.778.262.2001533.20657524.2964181.49243029.262.778-.288 3.068-1.346 8.791-5.214 12.655-3.725 3.725-9.168 4.841-12.3 5.175 3.9525634-4.804971 8.3848244-9.1943435 13.228-13.1.2790244-.22329099.4177293-.57847814.3638659-.93176589-.0538635-.35328775-.2921121-.65100328-.625-.78100002s-.7098415-.0725251-.9888659.15076591c-4.8673292 3.9257095-9.3292613 8.3290157-13.319 13.144.356-3.157 1.499-8.482 5.158-12.14zm-36.204-.117c-.0545229-.27618211.02011682-.56214081.20266407-.77644388s.45299789-.33346646.73433593-.32355612h.04c3.079.1 8.856.822 12.944 4.451 3.942 3.5 5.379 8.873 5.9 11.983-3.89-3.76-13.7-12.759-14.155-13.172-.26330474-.2415115-.63545322-.324206-.97626072-.2169332-.3408075.1072729-.59849724.3882157-.676.737-.07750276.3487844.03695598.7124217.30026072.9539332.111.1 10.192 9.345 14.1 13.118-3.171-.163-8.572-.982-12.455-4.429-4.093-3.625-5.49-9.279-5.959-12.325zm49.987 44.9c-.8877238-.0036757-1.7483297-.3062793-2.443-.859-.2849538-.2220834-.6675388-.2732017-1.0008023-.1337201-.3332636.1394816-.565382.4478731-.6071977.8067201-.3602899 3.096239-2.7263793 5.5801689-5.8014672 6.0904029-3.0750879.5102341-6.1165926-1.0764406-7.4575328-3.8904029-.1642387-.3429576-.5087761-.5630896-.889-.568h-.012c-.3760344.0000006-.7202804.2109527-.891.546-.935069 1.8472655-2.8295546 3.0116645-4.9 3.0116645s-3.964931-1.164399-4.9-3.0116645c-.1641718-.3452843-.5179259-.5598952-.9-.546-.3802239.0049104-.7247613.2250424-.889.568-1.3409402 2.8139623-4.3824449 4.400637-7.4575328 3.8904029-3.0750879-.510234-5.4411773-2.9941639-5.8014672-6.0904029-.0418157-.358847-.27393411-.6672385-.60719768-.8067201-.33326356-.1394816-.7158485-.0883633-1.00080232.1337201-.69440149.5525088-1.55461946.8550998-2.442.859-2.209139 0-4-1.790861-4-4s1.790861-4 4-4c.9334477.0028468 1.8354859.3374339 2.545.944.27014599.225259.63877321.2920263.97076519.1758291s.57852491-.3982706.64923481-.7428291c.5116894-2.4702197 2.1585359-4.5543827 4.4434753-5.6234304 2.2849395-1.0690478 4.9402648-.9977289 7.1645247.1924304.2717868.1458179.5956549.1580592.8776736.0331736.2820186-.1248856.4906283-.3729226.5653264-.6721736.615475-2.466411 2.5257705-4.4016202 4.984-5.049.4105931 1.2801798.6687106 2.6043327.769 3.945-.624729.2510734-1.1946483.6212832-1.678 1.09-.3642825.3934726-.3533878 1.0042357.0246959 1.3844661.3780837.3802303.9887753.3945828 1.3843041.0325339.3511209-.3632656.8045884-.6109286 1.3-.71.4926367.0993298.9435153.3458659 1.293.707.3923789.3789722 1.0160848.3735524 1.4018186-.0121814s.3911536-1.0094397.0121814-1.4018186c-.4703313-.4527578-1.0206641-.8142211-1.623-1.066.1-.862.282-2.3.582-4 2.5184815.6107824 4.4899502 2.568769 5.118 5.083.0746981.299251.2833078.547288.5653264.6721736.2820187.1248856.6058868.1126443.8776736-.0331736 2.2242599-1.1901593 4.8795852-1.2614782 7.1645247-.1924304 2.2849394 1.0690477 3.9317859 3.1532107 4.4434753 5.6234304.0707099.3445585.3172428.6266319.6492348.7428291s.7006192.0494299.9707652-.1758291c.7090902-.6076501 1.6111724-.9433168 2.545-.947 2.209139 0 4 1.790861 4 4s-1.790861 4-4 4z"/><path id="Shape" d="m19 45c-.5522847 0-1 .4477153-1 1s-.4477153 1-1 1-1-.4477153-1-1-.4477153-1-1-1-1 .4477153-1 1c0 1.6568542 1.3431458 3 3 3s3-1.3431458 3-3c0-.5522847-.4477153-1-1-1z"/><path id="Shape" d="m30 49c-.5522847 0-1 .4477153-1 1s-.4477153 1-1 1-1-.4477153-1-1-.4477153-1-1-1-1 .4477153-1 1c0 1.6568542 1.3431458 3 3 3s3-1.3431458 3-3c0-.5522847-.4477153-1-1-1z"/><path id="Shape" d="m43 43c-.5522847 0-1 .4477153-1 1s-.4477153 1-1 1-1-.4477153-1-1-.4477153-1-1-1-1 .4477153-1 1c0 1.6568542 1.3431458 3 3 3s3-1.3431458 3-3c0-.5522847-.4477153-1-1-1z"/><circle id="Oval" cx="42" cy="53" r="1"/><circle id="Oval" cx="48" cy="48" r="1"/><circle id="Oval" cx="58" cy="41" r="1"/><circle id="Oval" cx="33" cy="45" r="1"/><circle id="Oval" cx="8" cy="38" r="1"/><circle id="Oval" cx="53" cy="39" r="1"/><circle id="Oval" cx="18" cy="54" r="1"/><circle id="Oval" cx="12" cy="34" r="1"/></g></g></svg>